<svg xmlns="http://www.w3.org/2000/svg" xmlns:xlink="http://www.w3.org/1999/xlink" width="1010.109" height="1036.997" viewBox="0 0 1010.109 1036.997">
  <defs>
    <linearGradient id="linear-gradient" x1="0.5" x2="0.5" y2="1" gradientUnits="objectBoundingBox">
      <stop offset="0" stop-color="#e3e3e3"/>
      <stop offset="1" stop-color="#d5d5d5"/>
    </linearGradient>
  </defs>
  <g id="Group_55" data-name="Group 55" transform="matrix(0.921, -0.391, 0.391, 0.921, -27.131, 324.046)" opacity="0.401">
    <path id="Path_8" data-name="Path 8" d="M304.555-.679c168.2-.375,304.253,135.334,303.88,303.116s-137.029,304.1-305.23,304.474S-1.047,471.576-.675,303.795,136.354-.3,304.555-.679Z" transform="translate(109.925 83.453)" fill="#fff"/>
    <path id="Path_3" data-name="Path 3" d="M0,0C6.977,6.959,14.731,13.917,21.706,21.651c-5.45,5.437-9.352,13.2-11.7,20.176C17,43.361,22.419,50.324,22.4,58.074,22.393,61.949,20.829,66.6,23.93,69.7a12.459,12.459,0,0,0,5.432,3.088C37.9,76.639,46.438,79.72,54.976,83.576s19.4,9.256,18.6,18.558c-11.65-1.524-22.524-3.05-33.392-6.9A104.624,104.624,0,0,0,44.8,117.7a91.956,91.956,0,0,1,32.622,3.8c-.01,4.65-.8,9.3-.808,13.952,6.994-.791,14.751,4.617,15.513,11.59s-3.917,14.734-10.913,16.3a120.477,120.477,0,0,1,30.235,29.382c-.81,14.727-1.618,28.678-3.2,43.406-.8,10.077-1.6,20.153-.067,30.224,1.533,9.3,3.843,18.591,8.486,27.105,7.735,15.482,21.69,28.626,38.774,32.463s36.521-2.406,45.1-17.15c3.12-5.432,6.246-13.964,13.239-13.979,5.438-.012,10.088,5.4,10.851,11.6,1.542,5.421,1.528,11.621,4.624,17.039,1.549,2.322,3.1,3.868,3.873,5.416,3.871,6.191,1.521,14.721-.048,21.7-5.48,18.612-10.961,38-7.9,57.366a48.626,48.626,0,0,0,6.176,17.811A301.326,301.326,0,0,0,259.6,299.34C259.166,146.669,146.791,21.372,0,0Z" transform="translate(459.533 86.548)" fill="#54c0eb"/>
    <path id="Path_4" data-name="Path 4" d="M245.528,32.777c-3.089-8.518-13.964-9.269-23.287-9.248-10.1.023-20.977.047-29.535,5.491a65.219,65.219,0,0,1-9.337,6.221c-5.444,2.337-10.88,1.574-17.094.813s-13.2-2.3-19.421-.732-12.443,5.453-14.01,11.656c-.784,3.1-.791,6.2-2.35,8.53-2.341,4.655-9.333,4.671-13.993,3.906-6.214-.761-13.979-2.294-15.521-7.715a10.728,10.728,0,0,1,.016-6.975c1.588-15.5,5.506-30.237,10.977-44.974A298.838,298.838,0,0,0,34.937,53.4c1.55,1.547,2.324,3.095,3.874,4.641,2.326,2.32,5.428,4.638,7.752,7.733,1.549,2.322,1.542,5.421,1.535,8.521-.019,8.525.741,16.273-.832,24.8-6.276,27.138-35.833,42.7-44.438,69.073C-.3,176.7-.319,186-.338,194.521c-.844,30.226,2.97,61.992,17.673,88.309,13.156,23.22,33.317,41,53.477,58.779,8.531,6.956,16.283,14.688,24.813,21.644,4.651,4.639,13.189,8.5,17.085,3.062,1.559-2.328,1.568-6.2,1.575-9.3a193.861,193.861,0,0,0-3.061-20.918,14.873,14.873,0,0,0-2.314-7.745c-2.326-2.32-6.207-3.861-6.977-6.959-2.32-4.645,3.905-9.308,5.471-14.737.784-3.1-.761-6.973-3.864-9.291-5.432-3.088-11.654.026-16.322,3.136-4.67,3.885-9.342,8.546-14.784,10.108-8.55,1.569-17.08-5.387-19.392-13.906s.038-17.05,3.165-25.581c2.346-6.98,6.248-14.739,13.247-17.854,7.78-4.667,17.876-3.14,27.194-.836,3.883.766,8.543,1.531,12.426,2.3a11.018,11.018,0,0,1,4.658,1.54c4.655,3.09,3.864,9.291,5.407,13.938s8.525,9.281,10.865,5.4c-1.528-11.621-2.274-25.569,6.289-33.338l7-4.666a42.875,42.875,0,0,0,5.454-6.987c7.02-12.415,14.815-24.058,21.835-36.473a23.7,23.7,0,0,1,3.9-5.434c6.224-3.889,15.535,1.515,20.986-3.922,7.006-6.215-3.836-21.691,4.72-26.36,8.558-5.444,19.4,12.356,27.179,6.139,3.146-17.057-6.14-34.086-20.1-43.354s-31.828-11.554-48.922-10.741c-1.554,0-3.108.007-4.665,1.56a8.824,8.824,0,0,0-2.345,6.205,65.685,65.685,0,0,1-11.719,29.475c-10.863-6.176-23.275-14.673-24.024-27.071s10.148-21.722,20.264-28.72L156.864,75.6a7.093,7.093,0,0,1,5.444-2.337c3.109-.782,6.987,2.309,6.979,6.184-.007,3.1-3.9,6.209-7,5.441-1.571,7.753,4.627,15.489,12.393,17.022s15.544-2.36,20.994-7.8c.787-4.652.022-10.075-3.077-13.943-3.871-6.191-11.626-12.374-6.951-18.584,2.338-3.105,6.222-3.114,10.105-2.347s6.208,3.086,9.311,5.4c3.879,2.316,7.762,3.083,10.863,6.176,5.428,4.638,6.966,11.609,7.728,18.582s2.3,13.945,6.949,19.359,14.751,4.617,17.873-1.59c1.563-3.878.017-7.75.8-12.4.794-7.752,9.351-12.421,10.92-19.4,3.132-10.857-8.5-20.906-10.028-32.527C246.288,40.525,247.074,36.648,245.528,32.777Z" transform="translate(168.031 114.323)" fill="#54c0eb"/>
    <path id="Path_5" data-name="Path 5" d="M153.561,33.757C142.7,27.581,132.619,18.3,119.414,16.783c-6.214-.761-13.208.029-17.084-3.837-1.55-1.546-2.32-4.645-4.648-6.19a11.1,11.1,0,0,0-7.762-3.083A202.784,202.784,0,0,0,52.637-.117C43.314-.1,33.21,1.476,27.756,8.463c-2.339,3.88-3.9,7.759-6.241,11.639-3.118,4.657-7.786,7.767-10.9,12.424-5.454,6.987-7.027,15.515-8.6,24.044C-.344,67.424-1.925,79.828,3.491,89.89c4.644,7.739,13.18,12.37,20.941,16.228C49.262,120.013,73.3,140.883,77.9,168.773c1.53,10.846.725,23.248,6.92,32.534,6.968,10.834,21.721,14.676,34.147,16.973,6.212,1.536,13.983.744,15.549-4.685-3.89,2.334-9.325.8-12.426-2.3s-3.089-8.518-.749-12.4c6.236-9.314,20.982-2.372,31.868-6.271,13.218-4.679,14.815-24.057,26.484-31.058,5.445-3.112,13.995-4.681,16.34-10.886.78-1.552.784-3.1,1.566-5.428,3.127-8.532,15.554-7.01,23.334-11.677,5.447-3.887,7.8-11.642,7.811-18.617s-.746-13.948.823-20.926c3.135-12.407,15.592-24.059,10.179-35.672-4.641-9.289-16.291-10.813-26.391-10.791C193.155,46.843,172.183,44.565,153.561,33.757Z" transform="translate(294.187 461.234)" fill="#54c0eb"/>
    <path id="Path_6" data-name="Path 6" d="M790.577,268.706c-6.207-3.861-14.756-2.292-18.655,3.917l-11.7,18.626c-19.253-76.68-61.827-147.109-123.089-198.9A390.171,390.171,0,0,0-.458,326.269c-1.569,6.978,3.854,13.941,10.843,15.476s13.993-3.906,15.563-10.884C54.307,154.875,205.313,27.441,384.006,27.043,552.6,26.667,695.3,139.5,734.569,299.83l-20.946-13.9c-6.207-3.861-14.757-2.292-18.655,3.917s-2.364,14.73,3.843,18.591l47.324,30.894a12.5,12.5,0,0,0,6.987,2.309l3.108-.007c3.886-.784,6.222-3.114,8.56-6.219l29.628-47.34C798.318,281.088,796.784,272.567,790.577,268.706Z" transform="translate(30.597 -0.068)" fill="url(#linear-gradient)"/>
    <path id="Path_7" data-name="Path 7" d="M786.8,4.908c-6.989-1.534-13.993,3.906-15.563,10.884C742.876,191.777,591.87,319.211,413.177,319.61,243.03,319.99,99.555,204.837,61.847,42.175L82.795,55.3C89,59.164,97.551,57.595,101.45,51.386s2.363-14.73-3.843-18.591L50.283,1.9C47.18-.417,43.3-.408,40.186.374c-3.886.784-6.222,3.114-8.56,6.219L2,53.933c-3.9,6.209-2.363,14.73,3.843,18.591,7.757,5.408,16.315-.036,18.655-3.917l12.474-19.4A382.331,382.331,0,0,0,161.6,253.523a387.381,387.381,0,0,0,253.07,93.208,390.624,390.624,0,0,0,253.486-94.338A388.487,388.487,0,0,0,799.2,19.605C799.212,12.63,794.566,5.666,786.8,4.908Z" transform="translate(-0.949 427.329)" fill="url(#linear-gradient)"/>
  </g>
</svg>
